<?xml version="1.0" encoding="UTF-8" standalone="no"?>
<!-- Creator: CorelDRAW 2020 (64-Bit) -->

<svg
   xml:space="preserve"
   width="261.78595mm"
   height="40.366093mm"
   version="1.1"
   style="clip-rule:evenodd;fill-rule:evenodd;image-rendering:optimizeQuality;shape-rendering:geometricPrecision;text-rendering:geometricPrecision"
   viewBox="0 0 25237.134 3891.4225"
   id="svg3"
   sodipodi:docname="logo-real-ids.svg"
   xmlns:inkscape="http://www.inkscape.org/namespaces/inkscape"
   xmlns:sodipodi="http://sodipodi.sourceforge.net/DTD/sodipodi-0.dtd"
   xmlns="http://www.w3.org/2000/svg"
   xmlns:svg="http://www.w3.org/2000/svg"><sodipodi:namedview
   id="namedview3"
   pagecolor="#ffffff"
   bordercolor="#000000"
   borderopacity="0.25"
   inkscape:showpageshadow="2"
   inkscape:pageopacity="0.0"
   inkscape:pagecheckerboard="0"
   inkscape:deskcolor="#d1d1d1"
   inkscape:document-units="mm" />
 <defs
   id="defs1">
  <style
   type="text/css"
   id="style1">
   <![CDATA[
    .fil0 {fill:#5B5B5B;fill-rule:nonzero}
    .fil1 {fill:#EF7F1A;fill-rule:nonzero}
    .fil3 {fill:#5B5B5B;fill-opacity:0.984314}
    .fil2 {fill:#5B5B5B;fill-opacity:0.988235}
   ]]>
  </style>
 </defs>
 <g
   id="Слой_x0020_1"
   inkscape:label="Слой 1"
   inkscape:groupmode="layer"
   transform="translate(-0.00618002,-6120.5381)">
  <metadata
   id="CorelCorpID_0Corel-Layer" />
  <path
   id="text_wasrusgen1"
   class="fil0"
   d="m 1901.08,6120.51 c -1168.45,0 -1908.34,857.11 -1901.02,2003.58 3.66,816.82 490.83,1527.41 1483.46,1882.71 32.97,14.64 69.59,-3.67 84.25,-32.97 l 150.18,-304.02 c 10.99,-29.3 -3.66,-62.27 -32.96,-76.92 C 831.54,9285.22 487.23,8662.52 479.9,8124.09 468.92,7182.74 1007.35,6582.03 1890.11,6582.03 c 879.08,0 1377.23,571.4 1377.23,1318.63 0,450.53 -161.17,805.83 -395.59,805.83 -117.21,0 -139.18,-80.58 -142.85,-168.49 V 7190.08 c 0,-32.97 -29.31,-62.27 -62.27,-62.27 h -212.44 c -36.62,0 -69.59,25.63 -84.25,58.6 l -21.98,69.59 c -153.84,-117.22 -322.33,-157.5 -501.81,-157.5 -717.92,0 -937.69,575.08 -937.69,985.31 0,406.58 219.77,985.3 937.69,985.3 183.14,0 362.63,-51.28 516.46,-172.15 91.57,161.16 256.4,249.07 450.53,249.07 699.6,0 941.36,-706.93 941.36,-1263.68 0,-999.97 -714.26,-1761.84 -1853.42,-1761.84 z m 336.99,2325.92 c -69.59,106.23 -190.47,194.13 -373.61,194.13 -402.92,0 -468.84,-410.24 -468.84,-553.09 0,-142.85 62.27,-560.41 468.84,-560.41 168.49,0 300.35,98.89 373.61,194.12 z M 4611.6,6710.24 c -10.99,-32.98 -43.95,-54.95 -80.59,-54.95 h -424.88 c -29.31,0 -47.62,29.31 -32.98,54.95 l 948.69,2076.83 c 10.98,21.97 32.96,36.63 58.6,36.63 25.64,0 47.62,-14.66 58.6,-36.63 l 527.45,-1175.78 523.79,1175.78 c 11,21.97 32.97,36.63 58.6,36.63 25.64,0 47.62,-14.66 58.61,-36.63 l 952.34,-2076.83 c 10.98,-25.64 -7.34,-54.95 -32.96,-54.95 h -424.9 c -36.62,0 -69.59,21.97 -84.25,54.95 L 6241.55,7816.42 5732.4,6651.61 c -10.98,-25.62 -36.62,-43.95 -65.93,-43.95 -29.3,0 -54.94,18.33 -65.93,43.95 L 5091.4,7816.42 4611.57,6710.24 Z m 2889.99,2080.49 c 36.62,0 65.93,-21.98 80.58,-54.94 L 7747,8325.54 h 586.06 l 168.48,410.25 c 14.65,32.96 43.96,54.94 80.58,54.94 h 417.56 c 25.64,0 43.96,-29.3 32.98,-54.94 l -930.37,-2062.2 c -10.99,-25.63 -36.63,-40.29 -62.27,-40.29 -25.64,0 -51.29,14.65 -62.28,40.29 l -926.7,2062.2 c -14.65,25.64 3.66,54.94 32.97,54.94 h 417.56 z m 538.44,-1186.77 153.84,377.28 h -307.69 z m 1857.06,-355.3 c 7.33,-109.89 87.91,-142.85 197.8,-142.85 58.6,0 329.65,51.28 549.43,135.52 29.3,10.99 65.93,0 76.91,-32.96 l 142.85,-315.01 c 14.66,-29.31 0,-65.93 -29.3,-80.58 -351.64,-153.84 -619.03,-183.15 -736.23,-183.15 -406.58,0 -699.61,230.76 -699.61,630.01 0,439.54 358.96,567.75 666.64,662.99 219.78,65.93 391.93,124.53 391.93,263.72 -7.33,102.56 -146.51,164.83 -300.35,164.83 -179.47,0 -355.3,-47.62 -553.1,-142.85 -29.3,-14.65 -62.27,-3.66 -76.91,25.64 l -150.19,296.69 c -14.64,29.3 -3.66,65.92 25.64,80.58 260.07,139.18 490.83,205.12 772.87,205.12 465.19,0 780.19,-311.34 780.19,-648.32 0,-754.55 -1040.25,-611.7 -1058.58,-919.38 z m 2062.2,809.49 h 219.76 l 300.36,681.29 c 10.98,32.96 43.95,54.94 80.58,54.94 h 421.23 c 25.63,0 43.95,-29.31 32.96,-51.29 l -362.62,-765.53 c 219.77,-113.55 391.93,-336.99 391.93,-626.34 0,-285.7 -172.16,-695.95 -765.54,-695.95 h -750.89 c -32.96,0 -58.6,25.64 -58.6,58.6 v 2021.9 c 0,32.96 25.64,58.6 58.6,58.6 h 373.61 c 32.97,0 58.61,-25.64 58.61,-58.6 v -677.63 z m 0,-461.52 v -487.16 h 336.97 c 208.79,0 260.07,157.5 260.07,241.75 0,73.25 -51.28,245.4 -249.07,245.4 h -347.97 z m 2369.86,761.88 c -282.04,0 -351.63,-285.71 -351.63,-391.92 V 6713.88 c 0,-32.96 -25.64,-58.6 -58.6,-58.6 h -377.28 c -32.97,0 -58.61,25.64 -58.61,58.6 v 1252.71 c 0,358.95 219.78,849.78 846.12,849.78 630.02,0 849.78,-490.83 849.78,-849.78 V 6713.88 c 0,-32.96 -25.63,-58.6 -58.6,-58.6 h -384.59 c -32.97,0 -58.61,25.64 -58.61,58.6 v 1252.71 c 0,106.21 -65.92,391.92 -347.97,391.92 z m 1835.09,-1109.85 c 7.33,-109.89 87.91,-142.85 197.8,-142.85 58.6,0 329.65,51.28 549.43,135.52 29.3,10.99 65.93,0 76.91,-32.96 l 142.85,-315.01 c 14.66,-29.31 0,-65.93 -29.3,-80.58 -351.64,-153.84 -619.03,-183.15 -736.23,-183.15 -406.58,0 -699.61,230.76 -699.61,630.01 0,439.54 358.96,567.75 666.64,662.99 219.77,65.93 391.93,124.53 391.93,263.72 -7.33,102.56 -146.51,164.83 -300.35,164.83 -179.47,0 -355.3,-47.62 -553.1,-142.85 -29.3,-14.65 -62.27,-3.66 -76.92,25.64 l -150.18,296.69 c -14.64,29.3 -3.66,65.92 25.64,80.58 260.07,139.18 490.83,205.12 772.87,205.12 465.19,0 780.18,-311.34 780.18,-648.32 0,-754.55 -1040.24,-611.7 -1058.57,-919.38 z m 2835.05,816.82 -3.66,223.43 c -80.58,40.29 -194.14,69.59 -293.03,69.59 -479.83,0 -549.43,-476.17 -549.43,-633.68 0,-157.49 69.6,-633.67 549.43,-633.67 146.51,0 325.99,84.24 446.86,194.13 25.64,21.98 62.27,21.98 84.25,0 l 234.42,-238.09 c 21.98,-21.97 21.98,-58.6 0,-84.24 -208.78,-212.44 -439.54,-336.98 -765.53,-336.98 -802.17,0 -1040.26,662.97 -1040.26,1098.85 0,450.54 238.09,1102.52 1040.26,1102.52 315.01,0 549.43,-117.21 743.55,-285.7 29.32,-25.64 43.96,-62.27 43.96,-98.89 l 3.66,-754.55 c 0,-32.97 -25.64,-58.6 -58.6,-58.6 h -772.86 c -32.98,0 -58.6,25.63 -58.6,58.6 v 318.67 c 0,32.96 25.62,58.6 58.6,58.6 h 336.98 z m 2212.36,-106.23 c 32.97,0 58.6,-25.64 58.6,-58.6 v -344.31 c 0,-32.97 -25.63,-58.6 -58.6,-58.6 h -699.6 v -384.61 h 912.04 c 32.96,0 58.6,-25.62 58.6,-58.6 v -340.64 c 0,-32.96 -25.64,-58.6 -58.6,-58.6 h -1344.27 c -32.96,0 -58.6,25.64 -58.6,58.6 v 2021.9 c 0,32.96 25.64,58.6 58.6,58.6 h 1344.27 c 32.96,0 58.6,-25.64 58.6,-58.6 v -344.31 c 0,-32.96 -25.64,-58.6 -58.6,-58.6 h -912.04 v -373.61 h 699.6 z m 1219.74,835.13 c 32.97,0 58.6,-25.64 58.6,-58.6 V 7655.23 l 1161.13,1128.17 c 14.64,18.31 36.62,25.62 58.6,25.62 21.97,0 36.62,-14.64 36.62,-32.96 V 6710.22 c 0,-32.98 -25.63,-58.62 -58.6,-58.62 h -380.94 c -32.96,0 -58.6,25.64 -58.6,58.62 V 7743.14 L 22090.73,6640.62 c -18.31,-18.31 -36.62,-25.64 -62.27,-25.64 -18.32,0 -32.96,14.65 -32.96,36.62 v 2084.18 c 0,32.96 25.64,58.6 58.6,58.6 h 377.28 z m 2805.75,-2421.15 c 0,-32.97 -29.31,-62.27 -62.27,-62.27 h -146.51 c -40.29,0 -80.58,14.64 -109.89,36.62 l -684.95,531.12 c -25.64,21.97 -32.98,58.6 -14.66,87.9 l 146.51,230.76 c 18.33,29.31 54.95,36.64 87.91,21.98 l 285.71,-157.49 v 1670.26 c 0,32.96 29.3,62.27 62.27,62.27 h 373.61 c 32.96,0 62.27,-29.31 62.27,-62.27 z" />
  
  
 </g>
</svg>
