<svg xmlns="http://www.w3.org/2000/svg" viewBox="0 0 5010.54 700.00" fill="currentColor" preserveAspectRatio="xMinYMid meet"><g transform="matrix(1 0 0 -1 0 700.00)"><path transform="translate(0.00 0)" d="M615 196Q615 132 573.0 85.0Q531 38 459.5 13.0Q388 -12 303 -12Q231 -12 159.5 6.0Q88 24 24 61L74 177Q120 149 175.5 134.5Q231 120 284 120Q356 120 403.5 146.0Q451 172 451 219Q451 258 418.5 278.0Q386 298 330 298H159V420H318Q367 420 394.5 440.0Q422 460 422 495Q422 536 382.5 559.0Q343 582 281 582Q235 582 186.0 569.5Q137 557 93 532L44 658Q155 715 284 715Q366 715 435.0 691.0Q504 667 545.0 621.0Q586 575 586 514Q586 464 559.0 425.0Q532 386 485 365Q546 344 580.5 299.5Q615 255 615 196Z"/><path transform="translate(689.71 0)" d="M561 150H236L174 0H8L320 700H480L793 0H623ZM510 273 399 541 288 273Z"/><path transform="translate(1522.42 0)" d="M1011 700V0H87V700H248V132H469V700H630V132H850V700ZM1106 132V-145H956V0H847V132Z"/><path transform="translate(2686.12 0)" d="M87 700H248V244L582 700H734V0H574V455L240 0H87Z"/><path transform="translate(3540.83 0)" d="M622 568H398V0H238V568H15V700H622Z"/><path transform="translate(4211.54 0)" d="M561 150H236L174 0H8L320 700H480L793 0H623ZM510 273 399 541 288 273Z"/></g></svg>